<?xml version="1.0" encoding="utf-8"?>
<!-- Generator: Adobe Illustrator 16.0.4, SVG Export Plug-In . SVG Version: 6.00 Build 0)  -->
<!DOCTYPE svg PUBLIC "-//W3C//DTD SVG 1.1//EN" "http://www.w3.org/Graphics/SVG/1.1/DTD/svg11.dtd">
<svg version="1.1" id="Layer_1" xmlns="http://www.w3.org/2000/svg" xmlns:xlink="http://www.w3.org/1999/xlink" x="0px" y="0px"
	 width="200px" height="200px" viewBox="0 0 200 200" enable-background="new 0 0 200 200" xml:space="preserve">
<rect fill="#F1F2F2" width="200" height="200"/>
<g id="_x36_" display="none">
	<g display="inline">
		<g>
			<g>
				<path fill="#F0D1A0" d="M70.464,74.683c0.317-1.706-0.723-4.59-1.36-6.162c-0.19-0.468-0.4-0.99-0.662-1.479
					c-0.397-0.743-0.917-1.415-1.687-1.723c-3.286-1.325-6.392,3.226-6.663,5.974c-0.065,0.66-0.065,1.346-0.021,2.046
					c0.044,1.438,0.369,2.809,0.833,4.131c0.234,0.661,0.5,1.311,0.796,1.958c3.242,4.359,3.242,13.757,10.289,9.058
					c2.349-2.349,0-9.398-1.535-11.751C70.343,76.094,70.328,75.417,70.464,74.683z"/>
			</g>
			<g>
				<path fill="#E2B477" d="M133.253,65.319c-0.771,0.309-1.29,0.98-1.69,1.723c-0.262,0.489-0.467,1.011-0.657,1.479
					c-0.641,1.571-1.681,4.456-1.361,6.162c0.136,0.734,0.12,1.411,0.008,2.051c-1.534,2.354-3.884,9.402-1.534,11.751
					c7.048,4.7,7.048-4.698,10.291-9.058c0.293-0.647,0.56-1.297,0.793-1.958c0.464-1.322,0.791-2.692,0.832-4.131
					c0.046-0.7,0.043-1.386-0.021-2.046C139.646,68.545,136.538,63.995,133.253,65.319z"/>
			</g>
		</g>
		<g>
			<g>
				<path fill="#D2A965" d="M120.328,107.83c-0.031,0.029-0.067,0.061-0.098,0.09c-0.695,0.739-1.411,1.48-2.17,2.216
					c-4.536,4.398-10.1,8.475-15.709,9.465c-0.398,0.073-1.371,0.108-2.35,0.108c-0.621,0-1.227-0.019-1.697-0.046v36.45
					c0.381-0.022,0.744-0.022,1.154-0.08c0.207,0.03,0.966,0.03,1.174,0c11.943,1.643,12.064-10.894,21.263-21.401
					c-0.782-5.254-1.475-10.738-2.058-16.449C119.326,113.128,120.274,111.823,120.328,107.83z"/>
			</g>
			<g>
				<path fill="#E2B477" d="M81.713,109.911c-0.681-0.665-1.317-1.335-1.945-2.005c-0.025-0.025-0.057-0.051-0.085-0.076
					c-0.286,4.735,0.729,5.298,0.216,10.353c-0.581,5.711-1.277,11.195-2.057,16.449c8.881,10.151,9.665,22.146,20.463,21.481
					v-36.45c-0.269-0.016-0.502-0.036-0.648-0.062C91.952,118.594,86.29,114.396,81.713,109.911z"/>
			</g>
			<g>
				<path fill="#F0D1A0" d="M67.739,50.649c-0.312,1.835-0.501,3.734-0.544,5.683c-0.922,6.678,0.762,25.498,0.771,25.893
					c0.167,8.476,3.791,16.394,9.235,22.826c0.785,0.927,1.659,1.89,2.567,2.855c0.628,0.67,1.265,1.34,1.945,2.005
					c4.577,4.484,10.239,8.683,15.944,9.689c0.146,0.026,0.379,0.047,0.648,0.062V29.65C79.509,30.881,70.418,35.047,67.739,50.649z
					"/>
			</g>
			<g>
				<path fill="#E2B477" d="M132.267,50.649c-2.758-16.075-12.292-20.018-32.265-21.11c-0.584,0.031-1.131,0.076-1.697,0.111v90.013
					c0.471,0.027,1.076,0.046,1.697,0.046c0.979,0,1.951-0.035,2.35-0.108c5.609-0.99,11.173-5.066,15.709-9.465
					c0.759-0.735,1.475-1.477,2.17-2.216c0.914-0.974,1.79-1.938,2.576-2.869c5.444-6.432,9.067-14.35,9.233-22.826
					c0.007-0.396,1.695-19.215,0.772-25.893C132.77,54.384,132.582,52.484,132.267,50.649z"/>
			</g>
		</g>
		<g>
			<path fill="#8A4F3B" d="M67.253,25.317c-7.757,9.065-7.195,18.632-4.826,29.875c0.625,2.978,2.283,13.664,4.491,22.234
				c0.332,1.294,2.014,0.312,2.855,0.438c1.119-3.495-0.032-19.874,0.84-24.375c0.835-4.297,1.797-12.065,5.312-14.87
				c2.604-2.077,6.108-2.69,9.438-2.561c3.328,0.131,6.59,0.924,9.891,1.351c1.234,0.158,2.52,0.134,3.835,0.01V12.358
				c-1.446,0.08-2.886,0.185-4.325,0.329C84.404,13.722,74.173,17.234,67.253,25.317z"/>
		</g>
		<g>
			<path fill="#7C381C" d="M130.01,10.021c-10.062,2.458-20.565,1.754-30.922,2.337v25.061c6.211-0.587,13.121-3.566,18.686-1.716
				c6.245,2.076,9.656,13.929,11.049,19.685c1.647,6.82,1.086,13.517,1.306,20.5c0.998-0.158,1.997-0.318,2.993-0.477
				c1.767-9.783,7.453-18.112,7.92-28.609c0.094-2.102,0.032-4.201-0.163-6.29C140.605,37.654,133.692,9.123,130.01,10.021z"/>
		</g>
		<g>
			<g>
				<path fill="#FFFFFF" d="M78.33,131.239l-11.412,9.929c2.142,4.245,4.861,8.965,8.318,13.89
					c4.509,6.415,9.157,11.595,13.314,15.66c0,0,3.13-12.53,11.354-18.771C87.374,147.671,78.33,131.239,78.33,131.239z"/>
			</g>
			<g>
				<path fill="#78919E" d="M99.923,200l-0.019-48.055c0,0-5.473,11.724-11.747,8.601l-9.679-24.179l-8.53,3.924l-9.914,4.581
					l-3.054,0.941l-8.107,2.536l-20.604,6.392c-2.328,0.728-4.417,2.021-6.085,3.784l-7.919,8.386
					c-1.855,1.973-3.124,4.417-3.618,7.098c-0.583,3.139-1.474,20.069-2.564,25.991H99.923z"/>
			</g>
		</g>
		<g>
			<g>
				<path fill="#6B828C" d="M191.916,200c-1.093-5.922-1.983-22.853-2.567-25.991c-0.492-2.681-1.762-5.125-3.617-7.098
					l-7.918-8.386c-1.667-1.763-3.76-3.057-6.088-3.784l-20.604-6.392l-8.104-2.536l-3.054-0.941l-9.914-4.581l-8.528-3.924
					l-9.679,24.179c-6.274,3.123-11.75-8.601-11.75-8.601L100.074,200H191.916z"/>
			</g>
		</g>
	</g>
	<g display="inline">
		<g>
			<path fill="#BAD1DD" d="M118.971,200l5.255-26.188l-21.901-24.443h-2.95c0,0-23.035,24.199-22.87,25.955L81.732,200H118.971z"/>
		</g>
		<g>
			<path fill="#2075BC" d="M96.131,165.622L91.228,200h18.209l-4.904-34.378c-0.248-1.125-0.085-2.296,0.453-3.31l2.959-5.561
				c0.131-0.335,0.054-0.721-0.204-0.973c-1.136-1.132-2.275-2.264-3.415-3.396c-0.772-0.77-1.705-1.491-2.154-2.496
				c-0.321-0.723-1.206-2.342-2.234-1.654c-0.896,0.602-1.195,1.546-1.777,2.338c-0.583,0.798-1.489,1.482-2.188,2.177
				c-1.015,1.009-2.033,2.021-3.049,3.031c-0.257,0.252-0.335,0.638-0.203,0.973l2.957,5.561
				C96.216,163.326,96.38,164.497,96.131,165.622z"/>
		</g>
		<g>
			<path fill="#E5F4FC" d="M100.922,147.379c-0.334,0.32-0.845,0.32-1.18,0l-22.003-21.314l-4.917,15.467l9.506,33.792
				l17.283-26.106c0.354-0.53,1.09-0.53,1.439,0l17.284,26.106l9.506-33.792l-4.915-15.467L100.922,147.379z"/>
		</g>
		<g>
			<path fill="#65797E" d="M57.347,165.404L69.093,200h20.136l-1.519-4.986l-6.6-31.724l-8.304-24.681
				c-1.88,0.551-8.161,3.337-14.514,5.243c-1.834,3.994-2.114,7.142-2.812,9.313l14.252,7.007L57.347,165.404z"/>
			<path fill="#65797E" d="M131.458,200l11.867-34.596l-12.398-5.231l14.249-7.007c-0.698-2.172-0.962-4.686-2.812-8.677
				c-6.323-1.91-12.617-5.313-14.498-5.88l-11.291,33.497l-3.629,22.907L111.252,200H131.458z"/>
		</g>
	</g>
</g>
<g id="_x31_4">
	<g id="_x31_0">
		<g>
			<path fill="#DEB09D" d="M92.622,142.527c-3.355-0.511-6.714-1.33-9.672-2.995c-2.481-1.396-4.564-3.319-6.396-5.504
				c-1.577,2.479-3.128,4.974-4.139,7.901c-0.074,0.211-0.077,0.442-0.01,0.664c4.195,13.633,8.243,28.312,20.604,36.924
				c1.793,1.248,3.708,2.351,5.777,3.057c5.244,1.783,11.352,0.778,15.743-2.603c6.241-4.799,6.587-12.993,8.777-19.957
				c1.822-5.798,3.587-11.617,5.381-17.421c0.067-0.222,0.062-0.453-0.013-0.67l-1.995-5.711
				C116.586,141.986,104.2,144.3,92.622,142.527z"/>
			<g>
				<path fill="#DEB09D" d="M123.41,127.106c-0.016-0.16,0.015-0.341-0.019-0.5c-1.312-6.387-0.744-13.416-0.316-16.9
					c-0.822,0.799-1.657,1.582-2.513,2.35c-0.42,0.377-0.843,0.758-1.269,1.135c-4.721,4.195-9.391,6.169-14.019,6.04
					c-4.629,0.129-9.301-1.845-14.022-6.04c-0.425-0.377-0.848-0.758-1.268-1.135c-2.461-2.211-4.813-4.447-6.87-6.829
					c0.683,6.329,0.154,12.793-1.569,18.926c-1.067,3.789-3.049,6.824-4.992,9.876c1.832,2.185,3.915,4.107,6.396,5.504
					c2.958,1.665,6.316,2.484,9.672,2.995c11.578,1.772,23.964-0.541,34.058-6.314l-3.213-9.21L123.41,127.106z"/>
				<path fill="#F8D0B4" d="M135.674,66.759c-0.074-0.139-0.152-0.281-0.227-0.425c-1.895-3.608-2.766-8.667-3.863-12.583
					c-1.101-3.925-3.211-7.424-3.659-11.574c0.384,3.554-9.762,8.313-12.359,10.112c-3.116,2.16-6.672,3.466-10.29,5.216v45.191
					v16.534c4.628,0.129,9.298-1.845,14.019-6.04c0.426-0.377,0.849-0.758,1.269-1.135c0.855-0.768,1.69-1.551,2.513-2.35
					c4.878-4.716,9.1-9.979,11.32-16.509c0.552-1.624,0.278-1.361,0.662-3.007c1.22-0.018,3.008-0.384,3.624-1.456
					c0.598-1.041,0.729-2.278,0.848-3.474c0.154-1.577,0.31-5.309,0.464-6.886C140.573,72.503,138.094,71.156,135.674,66.759z"/>
				<path fill="#E2BBA1" d="M105.275,57.443c-0.305-0.149-12.886,3.623-18.46,6.731c-6.417,3.577-12.643,10.13-18.456,14.844
					c0.727,3.873,2.438,10.251,6.112,10.473c1.126,0.067,1.737,1.392,1.928,2.5c0.892,5.19,3.414,9.409,6.716,13.235
					c2.057,2.382,4.409,4.618,6.87,6.829c0.42,0.377,0.843,0.758,1.268,1.135c4.722,4.195,9.394,6.169,14.022,6.04l-0.031-16.534
					l-0.085-45.14c0.039-0.018,0.077-0.036,0.116-0.051V57.443z"/>
			</g>
			<path fill="#E2BBA1" d="M77,133.332c0,0.361-0.036,0.686-0.105,1.041c-0.108-0.108-0.217-0.252-0.325-0.355
				C76.714,133.801,76.858,133.549,77,133.332z"/>
			<path fill="#7C381C" d="M111.326,10.368C95.322,8.281,79.247,15.244,69.81,28.395c-2.896,4.036-4.886,8.648-6.504,13.346
				c-3.791,11.007-6.236,23.188-4.154,34.803c0.977,5.432,3.025,10.659,6.357,15.086c2.997,3.981,7.221,7.095,11.924,8.71
				c-0.964-0.904-1.481-1.995-2.066-3.146c-0.523-1.026-1.026-2.049-1.382-3.126c-0.626-1.912-1.051-3.912-1.219-5.919
				c-0.327-3.93,0.343-8.1,2.695-11.354c5.288-7.301,18.331-10.553,26.283-13.718c8.101-3.221,26.761-9.607,26.204-20.688
				c0.623,5.128,1.657,11.233,3.775,15.993c3.185,7.151,7.035,12.746,7.787,20.854c0.817,8.813-1.345,17.879-6.053,25.378
				c2.961,0.108,5.762-1.564,7.718-3.791c10.11-11.512,15.017-28.134,14.721-43.282c-0.253-13.063-4.239-24.146-14.716-32.251
				c-0.94-0.729-9.8-5.677-9.728-4.01C131.195,15.247,115.617,10.928,111.326,10.368z"/>
		</g>
		<g>
			<path fill="#728D96" d="M183.777,200c-1.307-14.281-3.145-27.584-4.86-34.006c-3.681-13.772-11.811-17.421-25.327-21.55
				c-2.052-0.624-29.796-4.824-27.951-10.859c-6.1,19.956-13.537,37.98-19.668,57.952c-0.871,2.824-1.736,5.644-2.603,8.463H183.777
				z"/>
			<path fill="#657D83" d="M48.243,200h48.85c-0.868-2.819-1.731-5.639-2.603-8.463c-6.131-19.972-10.886-39.031-17.001-58.988
				c0,0.984-13.485,7.566-14.897,8.128c-5.564,2.206-10.342,2.272-15.295,3.268C50.369,162.103,49.018,181.064,48.243,200z"/>
			<path fill="#E7E7E7" d="M93.895,200h13.301c2.873-6.767,5.749-13.534,8.622-20.302c2.206-5.2,4.822-9.437,6.436-14.849
				c0.938-3.159,2.371-6.128,3.272-9.304c0.454-1.598,0.673-8.839,1.624-9.653c-6.819,5.829-15.774,9.097-24.742,9.03
				c-5.222-0.036-10.419-1.206-15.179-3.34c-3.967-1.778-7.729-6.222-12.061-6.422C79.873,164.324,86.197,181.868,93.895,200z"/>
			<g>
				<g>
					<path fill="#657D83" d="M120.475,200c8.375-12.493,16.109-23.667,15.751-24.307c-0.011-0.021-8.796-15.73-8.796-15.73
						l11.971,1.284c-1.227-3.81-3.979-22.473-7.497-24.354l-6.759-5.442l-14.391,42.882L102.977,200H120.475z"/>
					<path fill="#728D96" d="M64.867,175.693c-0.363,0.649,7.185,11.782,15.485,24.307h17.764l-7.78-25.667l-13.138-42.728
						l-8.01,5.288c-3.52,1.881-6.272,20.544-7.499,24.354l11.971-1.284C73.66,159.963,64.875,175.673,64.867,175.693z"/>
				</g>
			</g>
			<path fill="#657D83" d="M50.956,200c-0.629-7.056-1.551-14.081-1.378-21.193c0.286-11.648-0.333-23.343-2.281-34.862
				c-2.438,0.484-4.711,1.731-7.551,2.495c-20.41,5.494-21.008,19.363-22.487,34.062c-0.681,6.768,0.237,12.994-0.907,19.498H50.956
				z"/>
		</g>
		<path fill="#7C381C" d="M81.559,124.147c-0.396,1.402-0.827,3.087-1.902,4.093c-0.502,0.464-3.409,2.257-3.301,2.87
			c1.074,4.81,1.11,9.793,0.142,14.602c-0.86,4.129-2.368,8.252-6.458,10.118c-0.61,0.288-1.113,0.541-1.613,0.933
			c-0.216,0.145-0.396,0.324-0.61,0.505c-1.113,1.005-0.684,1.505-0.431,2.907c0.036,0.252,0.069,0.464,0.105,0.716
			c0.289,2.047,0.325,4.129,0.036,6.139c-0.214,1.758-0.645,3.479-1.146,5.165c-1.83,6.313-3.731,12.416-9.867,15.823
			c-3.984,2.227-9.296,3.483-10.695,7.787c-5.095-14.817,2.154-29.28,13.743-38.501c0.108-0.072,0.181-0.145,0.289-0.217
			c0.358-0.288,0.788-0.571,1.005-1.005c0.395-0.68,0.322-1.469,0.069-2.221c-0.142-0.47-0.357-0.97-0.571-1.402
			c-2.263-5.134-1.366-11.375,1.865-15.896c2.404-3.34,10.801-4.7,10.298-9.689c-0.108-1.258-0.933-2.329-1.58-3.442
			c-4.592-8.149,2.943-14.282,9.546-18.48c0.538-0.322,1.077-0.646,1.58-0.969c0.357,0.43,0.68,0.86,1.038,1.255
			C83.782,111.551,83.28,118.015,81.559,124.147z"/>
	</g>
	<path fill="#E7E7E7" d="M67.815,157.268c-1.113,1.005-0.684,1.505-0.431,2.907c0.036,0.252,0.069,0.464,0.105,0.716
		c-2.296-1.148-5.272-2.546-7.93-3.587c0.108-0.072,0.181-0.145,0.289-0.217c0.358-0.288,0.788-0.571,1.005-1.005
		c0.395-0.68,0.322-1.469,0.069-2.221c2.011,0.5,4.917,1.469,7.502,2.901C68.21,156.907,68.029,157.087,67.815,157.268z"/>
</g>
</svg>
